<svg width="73" height="31" viewBox="0 0 73 31" fill="none" xmlns="http://www.w3.org/2000/svg">
<mask id="path-1-outside-1_38_464" maskUnits="userSpaceOnUse" x="0" y="0" width="73" height="31" fill="black">
<rect fill="white" width="73" height="31"/>
<path d="M3.85579 22.7401V3.21579C3.85579 2.23431 2.34853 1.74358 0.595895 1.63842V1.46316H9.70958V1.63842C7.95695 1.74358 6.44968 2.23431 6.44968 3.21579V22.5648C6.44968 26.4907 4.20632 28.9795 0.595895 29.8558V29.5403C3.18979 28.4537 3.85579 26.7712 3.85579 22.7401ZM21.9509 26.3505C15.0806 26.3505 10.5938 21.4782 10.5938 14.0471C10.5938 6.47568 15.2208 1.28789 21.9158 1.28789C28.6459 1.28789 33.3079 6.54579 33.3079 14.1172C33.3079 21.5483 28.7862 26.3505 21.9509 26.3505ZM21.9509 25.8247C27.1387 25.8247 30.5388 21.1277 30.5388 14.1172C30.5388 6.93137 26.9634 1.81368 21.9158 1.81368C16.9384 1.81368 13.363 6.79116 13.363 14.0471C13.363 21.1277 16.7631 25.8247 21.9509 25.8247ZM40.7558 16.3605V25.4742H44.191C48.1169 25.4742 51.517 23.6515 51.517 18.9895C51.517 16.2904 50.3953 14.1172 48.4674 12.8202C45.9436 14.5378 42.7889 15.6945 40.7558 16.3605ZM40.7558 1.98895V15.8347C44.1559 14.5378 49.7643 11.6635 49.7643 6.7561C49.7643 3.28589 46.9601 1.98895 43.7002 1.98895H40.7558ZM48.8179 12.6099C51.6922 13.5563 54.2861 15.4492 54.2861 19.2348C54.2861 23.7216 50.6406 26 44.191 26H34.902V25.8247C36.6546 25.7196 38.1619 25.2288 38.1619 24.2474V3.21579C38.1619 2.23431 36.6546 1.74358 34.902 1.63842V1.46316H43.525C49.2736 1.46316 52.5335 3.11063 52.5335 6.65095C52.5335 9.13968 50.9211 11.0676 48.8179 12.6099ZM63.528 1.11263C65.5961 1.11263 67.4539 1.63842 68.856 1.63842C69.2415 1.63842 69.5921 1.60337 69.9075 1.49821C69.9777 1.49821 69.9777 1.49821 70.0478 1.49821L71.1344 9.52526H70.889C69.2766 4.33747 66.858 1.63842 63.0723 1.63842C60.1279 1.63842 58.3051 3.28589 58.3051 6.05505C58.3051 13.7316 72.1159 10.2263 72.1159 19.2348C72.1159 23.8968 68.4003 26.3505 63.7383 26.3505C58.5154 26.3505 55.1504 23.2308 55.1504 19.8658C55.1504 18.3235 55.8514 17.6575 56.5174 17.6575C57.2886 17.6575 57.7092 18.4987 57.7092 19.9709C57.7092 23.0906 59.6021 25.8247 63.6682 25.8247C67.3487 25.8247 69.8024 23.6164 69.8024 20.2864C69.8024 12.3645 56.0618 15.9048 56.0618 7.56232C56.0618 3.67147 59.0763 1.11263 63.528 1.11263Z"/>
</mask>
<path d="M3.85579 22.7401V3.21579C3.85579 2.23431 2.34853 1.74358 0.595895 1.63842V1.46316H9.70958V1.63842C7.95695 1.74358 6.44968 2.23431 6.44968 3.21579V22.5648C6.44968 26.4907 4.20632 28.9795 0.595895 29.8558V29.5403C3.18979 28.4537 3.85579 26.7712 3.85579 22.7401ZM21.9509 26.3505C15.0806 26.3505 10.5938 21.4782 10.5938 14.0471C10.5938 6.47568 15.2208 1.28789 21.9158 1.28789C28.6459 1.28789 33.3079 6.54579 33.3079 14.1172C33.3079 21.5483 28.7862 26.3505 21.9509 26.3505ZM21.9509 25.8247C27.1387 25.8247 30.5388 21.1277 30.5388 14.1172C30.5388 6.93137 26.9634 1.81368 21.9158 1.81368C16.9384 1.81368 13.363 6.79116 13.363 14.0471C13.363 21.1277 16.7631 25.8247 21.9509 25.8247ZM40.7558 16.3605V25.4742H44.191C48.1169 25.4742 51.517 23.6515 51.517 18.9895C51.517 16.2904 50.3953 14.1172 48.4674 12.8202C45.9436 14.5378 42.7889 15.6945 40.7558 16.3605ZM40.7558 1.98895V15.8347C44.1559 14.5378 49.7643 11.6635 49.7643 6.7561C49.7643 3.28589 46.9601 1.98895 43.7002 1.98895H40.7558ZM48.8179 12.6099C51.6922 13.5563 54.2861 15.4492 54.2861 19.2348C54.2861 23.7216 50.6406 26 44.191 26H34.902V25.8247C36.6546 25.7196 38.1619 25.2288 38.1619 24.2474V3.21579C38.1619 2.23431 36.6546 1.74358 34.902 1.63842V1.46316H43.525C49.2736 1.46316 52.5335 3.11063 52.5335 6.65095C52.5335 9.13968 50.9211 11.0676 48.8179 12.6099ZM63.528 1.11263C65.5961 1.11263 67.4539 1.63842 68.856 1.63842C69.2415 1.63842 69.5921 1.60337 69.9075 1.49821C69.9777 1.49821 69.9777 1.49821 70.0478 1.49821L71.1344 9.52526H70.889C69.2766 4.33747 66.858 1.63842 63.0723 1.63842C60.1279 1.63842 58.3051 3.28589 58.3051 6.05505C58.3051 13.7316 72.1159 10.2263 72.1159 19.2348C72.1159 23.8968 68.4003 26.3505 63.7383 26.3505C58.5154 26.3505 55.1504 23.2308 55.1504 19.8658C55.1504 18.3235 55.8514 17.6575 56.5174 17.6575C57.2886 17.6575 57.7092 18.4987 57.7092 19.9709C57.7092 23.0906 59.6021 25.8247 63.6682 25.8247C67.3487 25.8247 69.8024 23.6164 69.8024 20.2864C69.8024 12.3645 56.0618 15.9048 56.0618 7.56232C56.0618 3.67147 59.0763 1.11263 63.528 1.11263Z" fill="#282828"/>
<path d="M0.595895 1.63842H0.395895V1.82678L0.583916 1.83806L0.595895 1.63842ZM0.595895 1.46316V1.26316H0.395895V1.46316H0.595895ZM9.70958 1.46316H9.90958V1.26316H9.70958V1.46316ZM9.70958 1.63842L9.72156 1.83806L9.90958 1.82678V1.63842H9.70958ZM0.595895 29.8558H0.395895V30.1101L0.643069 30.0501L0.595895 29.8558ZM0.595895 29.5403L0.518618 29.3558L0.395895 29.4073V29.5403H0.595895ZM4.05579 22.7401V3.21579H3.65579V22.7401H4.05579ZM4.05579 3.21579C4.05579 2.60153 3.58051 2.18304 2.96268 1.91501C2.3364 1.64332 1.49521 1.49202 0.607873 1.43878L0.583916 1.83806C1.44921 1.88998 2.23796 2.03663 2.80348 2.28196C3.37743 2.53096 3.65579 2.84858 3.65579 3.21579H4.05579ZM0.795895 1.63842V1.46316H0.395895V1.63842H0.795895ZM0.595895 1.66316H9.70958V1.26316H0.595895V1.66316ZM9.50958 1.46316V1.63842H9.90958V1.46316H9.50958ZM9.6976 1.43878C8.81026 1.49202 7.96907 1.64332 7.3428 1.91501C6.72496 2.18304 6.24968 2.60153 6.24968 3.21579H6.64968C6.64968 2.84858 6.92804 2.53096 7.50199 2.28196C8.06751 2.03663 8.85627 1.88998 9.72156 1.83806L9.6976 1.43878ZM6.24968 3.21579V22.5648H6.64968V3.21579H6.24968ZM6.24968 22.5648C6.24968 24.4881 5.70096 26.0448 4.72265 27.2264C3.74339 28.4091 2.32107 29.2313 0.548721 29.6614L0.643069 30.0501C2.48114 29.604 3.98572 28.7436 5.03075 27.4815C6.07672 26.2181 6.64968 24.5674 6.64968 22.5648H6.24968ZM0.795895 29.8558V29.5403H0.395895V29.8558H0.795895ZM0.673172 29.7248C2.00258 29.1679 2.86287 28.4459 3.38006 27.3284C3.89039 26.2257 4.05579 24.7593 4.05579 22.7401H3.65579C3.65579 24.7519 3.48819 26.1424 3.01705 27.1604C2.55276 28.1636 1.7831 28.8261 0.518618 29.3558L0.673172 29.7248ZM21.9509 26.1505C18.5653 26.1505 15.7815 24.9514 13.843 22.8499C11.903 20.7468 10.7938 17.7227 10.7938 14.0471H10.3938C10.3938 17.8026 11.528 20.9302 13.549 23.1211C15.5714 25.3135 18.4662 26.5505 21.9509 26.5505V26.1505ZM10.7938 14.0471C10.7938 10.3017 11.9379 7.16184 13.8937 4.96106C15.8478 2.76212 18.6231 1.48789 21.9158 1.48789V1.08789C18.5135 1.08789 15.6278 2.40756 13.5947 4.69535C11.5632 6.98131 10.3938 10.221 10.3938 14.0471H10.7938ZM21.9158 1.48789C25.2256 1.48789 28.0185 2.77929 29.9861 4.99603C31.9553 7.21458 33.1079 10.3721 33.1079 14.1172H33.5079C33.5079 10.2908 32.3296 7.03374 30.2853 4.7305C28.2393 2.42545 25.3362 1.08789 21.9158 1.08789V1.48789ZM33.1079 14.1172C33.1079 17.7923 31.9903 20.7986 30.0463 22.8842C28.1036 24.9684 25.3196 26.1505 21.9509 26.1505V26.5505C25.4174 26.5505 28.312 25.3315 30.3389 23.1569C32.3647 20.9836 33.5079 17.8732 33.5079 14.1172H33.1079ZM21.9509 26.0247C24.6125 26.0247 26.8179 24.8168 28.3517 22.7179C29.8818 20.6241 30.7388 17.6522 30.7388 14.1172H30.3388C30.3388 17.5926 29.4957 20.4745 28.0288 22.4819C26.5656 24.4842 24.4771 25.6247 21.9509 25.6247V26.0247ZM30.7388 14.1172C30.7388 10.4934 29.8375 7.37475 28.284 5.15603C26.7281 2.93398 24.5152 1.61368 21.9158 1.61368V2.01368C24.3641 2.01368 26.4626 3.25223 27.9563 5.38546C29.4524 7.52203 30.3388 10.5552 30.3388 14.1172H30.7388ZM21.9158 1.61368C19.3527 1.61368 17.1571 2.89785 15.6094 5.0942C14.0641 7.28705 13.163 10.3885 13.163 14.0471H13.563C13.563 10.4497 14.4496 7.43448 15.9363 5.32461C17.4207 3.21826 19.5015 2.01368 21.9158 2.01368V1.61368ZM13.163 14.0471C13.163 17.6168 14.0198 20.6062 15.5498 22.7088C17.0836 24.8167 19.2892 26.0247 21.9509 26.0247V25.6247C19.4248 25.6247 17.3364 24.4843 15.8732 22.4735C14.4062 20.4574 13.563 17.5579 13.563 14.0471H13.163ZM40.7558 16.3605L40.6935 16.1705L40.5558 16.2156V16.3605H40.7558ZM40.7558 25.4742H40.5558V25.6742H40.7558V25.4742ZM48.4674 12.8202L48.579 12.6543L48.4667 12.5787L48.3549 12.6549L48.4674 12.8202ZM40.7558 1.98895V1.78895H40.5558V1.98895H40.7558ZM40.7558 15.8347H40.5558V16.1251L40.8271 16.0216L40.7558 15.8347ZM48.8179 12.6099L48.6996 12.4486L48.3863 12.6784L48.7554 12.7999L48.8179 12.6099ZM34.902 26H34.702V26.2H34.902V26ZM34.902 25.8247L34.89 25.6251L34.702 25.6364V25.8247H34.902ZM34.902 1.63842H34.702V1.82678L34.89 1.83806L34.902 1.63842ZM34.902 1.46316V1.26316H34.702V1.46316H34.902ZM40.5558 16.3605V25.4742H40.9558V16.3605H40.5558ZM40.7558 25.6742H44.191V25.2742H40.7558V25.6742ZM44.191 25.6742C46.181 25.6742 48.0613 25.2127 49.4486 24.1382C50.844 23.0575 51.717 21.3748 51.717 18.9895H51.317C51.317 21.2662 50.4899 22.8258 49.2037 23.822C47.9096 24.8243 46.1268 25.2742 44.191 25.2742V25.6742ZM51.717 18.9895C51.717 16.2318 50.5684 13.9926 48.579 12.6543L48.3558 12.9862C50.2221 14.2417 51.317 16.3491 51.317 18.9895H51.717ZM48.3549 12.6549C45.8556 14.3557 42.7235 15.5055 40.6935 16.1705L40.8181 16.5506C42.8542 15.8836 46.0316 14.7198 48.5799 12.9856L48.3549 12.6549ZM40.5558 1.98895V15.8347H40.9558V1.98895H40.5558ZM40.8271 16.0216C42.5357 15.3699 44.8106 14.3179 46.6617 12.8042C48.5125 11.2907 49.9643 9.29403 49.9643 6.7561H49.5643C49.5643 9.12554 48.2119 11.0198 46.4085 12.4945C44.6054 13.969 42.376 15.0027 40.6845 15.6479L40.8271 16.0216ZM49.9643 6.7561C49.9643 4.95803 49.2332 3.70309 48.0676 2.9061C46.9132 2.11672 45.3518 1.78895 43.7002 1.78895V2.18895C45.3085 2.18895 46.7792 2.50965 47.8419 3.23629C48.8934 3.95533 49.5643 5.08397 49.5643 6.7561H49.9643ZM43.7002 1.78895H40.7558V2.18895H43.7002V1.78895ZM48.7554 12.7999C50.1743 13.2671 51.5077 13.9629 52.4846 14.9951C53.4571 16.0226 54.0861 17.393 54.0861 19.2348H54.4861C54.4861 17.291 53.8182 15.8221 52.7751 14.7202C51.7366 13.6229 50.3358 12.8991 48.8805 12.4199L48.7554 12.7999ZM54.0861 19.2348C54.0861 21.4145 53.2057 23.0414 51.5472 24.1329C49.8762 25.2327 47.3977 25.8 44.191 25.8V26.2C47.4339 26.2 50.003 25.6281 51.7671 24.467C53.5438 23.2976 54.4861 21.5419 54.4861 19.2348H54.0861ZM44.191 25.8H34.902V26.2H44.191V25.8ZM35.102 26V25.8247H34.702V26H35.102ZM34.914 26.0244C35.8013 25.9711 36.6425 25.8198 37.2688 25.5481C37.8866 25.2801 38.3619 24.8616 38.3619 24.2474H37.9619C37.9619 24.6146 37.6836 24.9322 37.1096 25.1812C36.5441 25.4265 35.7553 25.5732 34.89 25.6251L34.914 26.0244ZM38.3619 24.2474V3.21579H37.9619V24.2474H38.3619ZM38.3619 3.21579C38.3619 2.60153 37.8866 2.18304 37.2688 1.91501C36.6425 1.64332 35.8013 1.49202 34.914 1.43878L34.89 1.83806C35.7553 1.88998 36.5441 2.03663 37.1096 2.28196C37.6836 2.53096 37.9619 2.84858 37.9619 3.21579H38.3619ZM35.102 1.63842V1.46316H34.702V1.63842H35.102ZM34.902 1.66316H43.525V1.26316H34.902V1.66316ZM43.525 1.66316C46.3864 1.66316 48.5981 2.07424 50.0876 2.90415C51.5616 3.72534 52.3335 4.95753 52.3335 6.65095H52.7335C52.7335 4.80404 51.8755 3.44234 50.2823 2.55472C48.7048 1.67581 46.4122 1.26316 43.525 1.26316V1.66316ZM52.3335 6.65095C52.3335 9.04328 50.7852 10.9192 48.6996 12.4486L48.9362 12.7712C51.0569 11.216 52.7335 9.23608 52.7335 6.65095H52.3335ZM69.9075 1.49821V1.29821H69.8751L69.8443 1.30847L69.9075 1.49821ZM70.0478 1.49821L70.2459 1.47138L70.2225 1.29821H70.0478V1.49821ZM71.1344 9.52526V9.72526H71.3633L71.3326 9.49843L71.1344 9.52526ZM70.889 9.52526L70.698 9.58462L70.7417 9.72526H70.889V9.52526ZM63.528 1.31263C64.5462 1.31263 65.5152 1.44207 66.4128 1.57342C67.3033 1.70374 68.1366 1.83842 68.856 1.83842V1.43842C68.1733 1.43842 67.3766 1.3102 66.4707 1.17763C65.5718 1.04609 64.5778 0.91263 63.528 0.91263V1.31263ZM68.856 1.83842C69.2521 1.83842 69.6266 1.80267 69.9708 1.68795L69.8443 1.30847C69.5575 1.40406 69.231 1.43842 68.856 1.43842V1.83842ZM69.9075 1.69821C69.9077 1.69821 69.9078 1.69821 69.908 1.69821C69.9081 1.69821 69.9082 1.69821 69.9084 1.69821C69.9085 1.69821 69.9086 1.69821 69.9088 1.69821C69.9089 1.69821 69.909 1.69821 69.9092 1.69821C69.9093 1.69821 69.9094 1.69821 69.9096 1.69821C69.9097 1.69821 69.9099 1.69821 69.91 1.69821C69.9101 1.69821 69.9102 1.69821 69.9104 1.69821C69.9105 1.69821 69.9107 1.69821 69.9108 1.69821C69.9109 1.69821 69.911 1.69821 69.9112 1.69821C69.9113 1.69821 69.9114 1.69821 69.9116 1.69821C69.9117 1.69821 69.9118 1.69821 69.912 1.69821C69.9121 1.69821 69.9122 1.69821 69.9124 1.69821C69.9125 1.69821 69.9126 1.69821 69.9128 1.69821C69.9129 1.69821 69.913 1.69821 69.9131 1.69821C69.9133 1.69821 69.9134 1.69821 69.9135 1.69821C69.9137 1.69821 69.9138 1.69821 69.9139 1.69821C69.914 1.69821 69.9142 1.69821 69.9143 1.69821C69.9144 1.69821 69.9146 1.69821 69.9147 1.69821C69.9148 1.69821 69.9149 1.69821 69.9151 1.69821C69.9152 1.69821 69.9153 1.69821 69.9155 1.69821C69.9156 1.69821 69.9157 1.69821 69.9158 1.69821C69.916 1.69821 69.9161 1.69821 69.9162 1.69821C69.9163 1.69821 69.9165 1.69821 69.9166 1.69821C69.9167 1.69821 69.9168 1.69821 69.917 1.69821C69.9171 1.69821 69.9172 1.69821 69.9173 1.69821C69.9175 1.69821 69.9176 1.69821 69.9177 1.69821C69.9178 1.69821 69.918 1.69821 69.9181 1.69821C69.9182 1.69821 69.9183 1.69821 69.9184 1.69821C69.9186 1.69821 69.9187 1.69821 69.9188 1.69821C69.9189 1.69821 69.9191 1.69821 69.9192 1.69821C69.9193 1.69821 69.9194 1.69821 69.9195 1.69821C69.9197 1.69821 69.9198 1.69821 69.9199 1.69821C69.92 1.69821 69.9201 1.69821 69.9203 1.69821C69.9204 1.69821 69.9205 1.69821 69.9206 1.69821C69.9207 1.69821 69.9209 1.69821 69.921 1.69821C69.9211 1.69821 69.9212 1.69821 69.9213 1.69821C69.9215 1.69821 69.9216 1.69821 69.9217 1.69821C69.9218 1.69821 69.9219 1.69821 69.9221 1.69821C69.9222 1.69821 69.9223 1.69821 69.9224 1.69821C69.9225 1.69821 69.9226 1.69821 69.9228 1.69821C69.9229 1.69821 69.923 1.69821 69.9231 1.69821C69.9232 1.69821 69.9233 1.69821 69.9235 1.69821C69.9236 1.69821 69.9237 1.69821 69.9238 1.69821C69.9239 1.69821 69.924 1.69821 69.9242 1.69821C69.9243 1.69821 69.9244 1.69821 69.9245 1.69821C69.9246 1.69821 69.9247 1.69821 69.9248 1.69821C69.925 1.69821 69.9251 1.69821 69.9252 1.69821C69.9253 1.69821 69.9254 1.69821 69.9255 1.69821C69.9256 1.69821 69.9258 1.69821 69.9259 1.69821C69.926 1.69821 69.9261 1.69821 69.9262 1.69821C69.9263 1.69821 69.9264 1.69821 69.9265 1.69821C69.9267 1.69821 69.9268 1.69821 69.9269 1.69821C69.927 1.69821 69.9271 1.69821 69.9272 1.69821C69.9273 1.69821 69.9274 1.69821 69.9276 1.69821C69.9277 1.69821 69.9278 1.69821 69.9279 1.69821C69.928 1.69821 69.9281 1.69821 69.9282 1.69821C69.9283 1.69821 69.9284 1.69821 69.9286 1.69821C69.9287 1.69821 69.9288 1.69821 69.9289 1.69821C69.929 1.69821 69.9291 1.69821 69.9292 1.69821C69.9293 1.69821 69.9294 1.69821 69.9295 1.69821C69.9296 1.69821 69.9297 1.69821 69.9299 1.69821C69.93 1.69821 69.9301 1.69821 69.9302 1.69821C69.9303 1.69821 69.9304 1.69821 69.9305 1.69821C69.9306 1.69821 69.9307 1.69821 69.9308 1.69821C69.9309 1.69821 69.931 1.69821 69.9311 1.69821C69.9313 1.69821 69.9314 1.69821 69.9315 1.69821C69.9316 1.69821 69.9317 1.69821 69.9318 1.69821C69.9319 1.69821 69.932 1.69821 69.9321 1.69821C69.9322 1.69821 69.9323 1.69821 69.9324 1.69821C69.9325 1.69821 69.9326 1.69821 69.9327 1.69821C69.9328 1.69821 69.9329 1.69821 69.933 1.69821C69.9331 1.69821 69.9333 1.69821 69.9333 1.69821C69.9335 1.69821 69.9336 1.69821 69.9337 1.69821C69.9338 1.69821 69.9339 1.69821 69.934 1.69821C69.9341 1.69821 69.9342 1.69821 69.9343 1.69821C69.9344 1.69821 69.9345 1.69821 69.9346 1.69821C69.9347 1.69821 69.9348 1.69821 69.9349 1.69821C69.935 1.69821 69.9351 1.69821 69.9352 1.69821C69.9353 1.69821 69.9354 1.69821 69.9355 1.69821C69.9356 1.69821 69.9357 1.69821 69.9358 1.69821C69.9359 1.69821 69.936 1.69821 69.9361 1.69821C69.9362 1.69821 69.9363 1.69821 69.9364 1.69821C69.9365 1.69821 69.9366 1.69821 69.9367 1.69821C69.9368 1.69821 69.9369 1.69821 69.937 1.69821C69.9371 1.69821 69.9372 1.69821 69.9373 1.69821C69.9374 1.69821 69.9375 1.69821 69.9376 1.69821C69.9377 1.69821 69.9378 1.69821 69.9379 1.69821C69.938 1.69821 69.9381 1.69821 69.9382 1.69821C69.9383 1.69821 69.9384 1.69821 69.9385 1.69821C69.9386 1.69821 69.9387 1.69821 69.9388 1.69821C69.9389 1.69821 69.939 1.69821 69.9391 1.69821C69.9392 1.69821 69.9393 1.69821 69.9394 1.69821C69.9395 1.69821 69.9396 1.69821 69.9397 1.69821C69.9397 1.69821 69.9398 1.69821 69.9399 1.69821C69.94 1.69821 69.9401 1.69821 69.9402 1.69821C69.9403 1.69821 69.9404 1.69821 69.9405 1.69821C69.9406 1.69821 69.9407 1.69821 69.9408 1.69821C69.9409 1.69821 69.941 1.69821 69.9411 1.69821C69.9412 1.69821 69.9413 1.69821 69.9414 1.69821C69.9415 1.69821 69.9416 1.69821 69.9416 1.69821C69.9417 1.69821 69.9418 1.69821 69.9419 1.69821C69.942 1.69821 69.9421 1.69821 69.9422 1.69821C69.9423 1.69821 69.9424 1.69821 69.9425 1.69821C69.9426 1.69821 69.9427 1.69821 69.9428 1.69821C69.9429 1.69821 69.9429 1.69821 69.943 1.69821C69.9431 1.69821 69.9432 1.69821 69.9433 1.69821C69.9434 1.69821 69.9435 1.69821 69.9436 1.69821C69.9437 1.69821 69.9438 1.69821 69.9439 1.69821C69.944 1.69821 69.9441 1.69821 69.9441 1.69821C69.9442 1.69821 69.9443 1.69821 69.9444 1.69821C69.9445 1.69821 69.9446 1.69821 69.9447 1.69821C69.9448 1.69821 69.9449 1.69821 69.945 1.69821C69.945 1.69821 69.9451 1.69821 69.9452 1.69821C69.9453 1.69821 69.9454 1.69821 69.9455 1.69821C69.9456 1.69821 69.9457 1.69821 69.9458 1.69821C69.9459 1.69821 69.9459 1.69821 69.946 1.69821C69.9461 1.69821 69.9462 1.69821 69.9463 1.69821C69.9464 1.69821 69.9465 1.69821 69.9466 1.69821C69.9466 1.69821 69.9467 1.69821 69.9468 1.69821C69.9469 1.69821 69.947 1.69821 69.9471 1.69821C69.9472 1.69821 69.9473 1.69821 69.9474 1.69821C69.9474 1.69821 69.9475 1.69821 69.9476 1.69821C69.9477 1.69821 69.9478 1.69821 69.9479 1.69821C69.948 1.69821 69.9481 1.69821 69.9481 1.69821C69.9482 1.69821 69.9483 1.69821 69.9484 1.69821C69.9485 1.69821 69.9486 1.69821 69.9487 1.69821C69.9487 1.69821 69.9488 1.69821 69.9489 1.69821C69.949 1.69821 69.9491 1.69821 69.9492 1.69821C69.9493 1.69821 69.9493 1.69821 69.9494 1.69821C69.9495 1.69821 69.9496 1.69821 69.9497 1.69821C69.9498 1.69821 69.9499 1.69821 69.9499 1.69821C69.95 1.69821 69.9501 1.69821 69.9502 1.69821C69.9503 1.69821 69.9504 1.69821 69.9504 1.69821C69.9505 1.69821 69.9506 1.69821 69.9507 1.69821C69.9508 1.69821 69.9509 1.69821 69.951 1.69821C69.951 1.69821 69.9511 1.69821 69.9512 1.69821C69.9513 1.69821 69.9514 1.69821 69.9514 1.69821C69.9515 1.69821 69.9516 1.69821 69.9517 1.69821C69.9518 1.69821 69.9519 1.69821 69.952 1.69821C69.952 1.69821 69.9521 1.69821 69.9522 1.69821C69.9523 1.69821 69.9524 1.69821 69.9524 1.69821C69.9525 1.69821 69.9526 1.69821 69.9527 1.69821C69.9528 1.69821 69.9529 1.69821 69.9529 1.69821C69.953 1.69821 69.9531 1.69821 69.9532 1.69821C69.9533 1.69821 69.9533 1.69821 69.9534 1.69821C69.9535 1.69821 69.9536 1.69821 69.9537 1.69821C69.9538 1.69821 69.9538 1.69821 69.9539 1.69821C69.954 1.69821 69.9541 1.69821 69.9542 1.69821C69.9542 1.69821 69.9543 1.69821 69.9544 1.69821C69.9545 1.69821 69.9546 1.69821 69.9546 1.69821C69.9547 1.69821 69.9548 1.69821 69.9549 1.69821C69.955 1.69821 69.955 1.69821 69.9551 1.69821C69.9552 1.69821 69.9553 1.69821 69.9554 1.69821C69.9554 1.69821 69.9555 1.69821 69.9556 1.69821C69.9557 1.69821 69.9557 1.69821 69.9558 1.69821C69.9559 1.69821 69.956 1.69821 69.9561 1.69821C69.9561 1.69821 69.9562 1.69821 69.9563 1.69821C69.9564 1.69821 69.9565 1.69821 69.9565 1.69821C69.9566 1.69821 69.9567 1.69821 69.9568 1.69821C69.9569 1.69821 69.9569 1.69821 69.957 1.69821C69.9571 1.69821 69.9572 1.69821 69.9572 1.69821C69.9573 1.69821 69.9574 1.69821 69.9575 1.69821C69.9576 1.69821 69.9576 1.69821 69.9577 1.69821C69.9578 1.69821 69.9579 1.69821 69.9579 1.69821C69.958 1.69821 69.9581 1.69821 69.9582 1.69821C69.9583 1.69821 69.9583 1.69821 69.9584 1.69821C69.9585 1.69821 69.9586 1.69821 69.9586 1.69821C69.9587 1.69821 69.9588 1.69821 69.9589 1.69821C69.9589 1.69821 69.959 1.69821 69.9591 1.69821C69.9592 1.69821 69.9593 1.69821 69.9593 1.69821C69.9594 1.69821 69.9595 1.69821 69.9595 1.69821C69.9596 1.69821 69.9597 1.69821 69.9598 1.69821C69.9599 1.69821 69.9599 1.69821 69.96 1.69821C69.9601 1.69821 69.9602 1.69821 69.9602 1.69821C69.9603 1.69821 69.9604 1.69821 69.9605 1.69821C69.9605 1.69821 69.9606 1.69821 69.9607 1.69821C69.9608 1.69821 69.9608 1.69821 69.9609 1.69821C69.961 1.69821 69.9611 1.69821 69.9611 1.69821C69.9612 1.69821 69.9613 1.69821 69.9614 1.69821C69.9614 1.69821 69.9615 1.69821 69.9616 1.69821C69.9617 1.69821 69.9617 1.69821 69.9618 1.69821C69.9619 1.69821 69.962 1.69821 69.962 1.69821C69.9621 1.69821 69.9622 1.69821 69.9622 1.69821C69.9623 1.69821 69.9624 1.69821 69.9625 1.69821C69.9625 1.69821 69.9626 1.69821 69.9627 1.69821C69.9628 1.69821 69.9628 1.69821 69.9629 1.69821C69.963 1.69821 69.9631 1.69821 69.9631 1.69821C69.9632 1.69821 69.9633 1.69821 69.9634 1.69821C69.9634 1.69821 69.9635 1.69821 69.9636 1.69821C69.9636 1.69821 69.9637 1.69821 69.9638 1.69821C69.9639 1.69821 69.9639 1.69821 69.964 1.69821C69.9641 1.69821 69.9642 1.69821 69.9642 1.69821C69.9643 1.69821 69.9644 1.69821 69.9645 1.69821C69.9645 1.69821 69.9646 1.69821 69.9647 1.69821C69.9647 1.69821 69.9648 1.69821 69.9649 1.69821C69.965 1.69821 69.965 1.69821 69.9651 1.69821C69.9652 1.69821 69.9652 1.69821 69.9653 1.69821C69.9654 1.69821 69.9655 1.69821 69.9655 1.69821C69.9656 1.69821 69.9657 1.69821 69.9658 1.69821C69.9658 1.69821 69.9659 1.69821 69.966 1.69821C69.966 1.69821 69.9661 1.69821 69.9662 1.69821C69.9663 1.69821 69.9663 1.69821 69.9664 1.69821C69.9665 1.69821 69.9665 1.69821 69.9666 1.69821C69.9667 1.69821 69.9668 1.69821 69.9668 1.69821C69.9669 1.69821 69.967 1.69821 69.967 1.69821C69.9671 1.69821 69.9672 1.69821 69.9673 1.69821C69.9673 1.69821 69.9674 1.69821 69.9675 1.69821C69.9675 1.69821 69.9676 1.69821 69.9677 1.69821C69.9678 1.69821 69.9678 1.69821 69.9679 1.69821C69.968 1.69821 69.968 1.69821 69.9681 1.69821C69.9682 1.69821 69.9682 1.69821 69.9683 1.69821C69.9684 1.69821 69.9685 1.69821 69.9685 1.69821C69.9686 1.69821 69.9687 1.69821 69.9687 1.69821C69.9688 1.69821 69.9689 1.69821 69.9689 1.69821C69.969 1.69821 69.9691 1.69821 69.9692 1.69821C69.9692 1.69821 69.9693 1.69821 69.9694 1.69821C69.9694 1.69821 69.9695 1.69821 69.9696 1.69821C69.9697 1.69821 69.9697 1.69821 69.9698 1.69821C69.9699 1.69821 69.9699 1.69821 69.97 1.69821C69.9701 1.69821 69.9701 1.69821 69.9702 1.69821C69.9703 1.69821 69.9704 1.69821 69.9704 1.69821C69.9705 1.69821 69.9706 1.69821 69.9706 1.69821C69.9707 1.69821 69.9708 1.69821 69.9708 1.69821C69.9709 1.69821 69.971 1.69821 69.971 1.69821C69.9711 1.69821 69.9712 1.69821 69.9713 1.69821C69.9713 1.69821 69.9714 1.69821 69.9715 1.69821C69.9715 1.69821 69.9716 1.69821 69.9717 1.69821C69.9717 1.69821 69.9718 1.69821 69.9719 1.69821C69.9719 1.69821 69.972 1.69821 69.9721 1.69821C69.9722 1.69821 69.9722 1.69821 69.9723 1.69821C69.9724 1.69821 69.9724 1.69821 69.9725 1.69821C69.9726 1.69821 69.9726 1.69821 69.9727 1.69821C69.9728 1.69821 69.9728 1.69821 69.9729 1.69821C69.973 1.69821 69.9731 1.69821 69.9731 1.69821C69.9732 1.69821 69.9733 1.69821 69.9733 1.69821C69.9734 1.69821 69.9735 1.69821 69.9735 1.69821C69.9736 1.69821 69.9737 1.69821 69.9737 1.69821C69.9738 1.69821 69.9739 1.69821 69.9739 1.69821C69.974 1.69821 69.9741 1.69821 69.9742 1.69821C69.9742 1.69821 69.9743 1.69821 69.9744 1.69821C69.9744 1.69821 69.9745 1.69821 69.9746 1.69821C69.9746 1.69821 69.9747 1.69821 69.9748 1.69821C69.9748 1.69821 69.9749 1.69821 69.975 1.69821C69.975 1.69821 69.9751 1.69821 69.9752 1.69821C69.9753 1.69821 69.9753 1.69821 69.9754 1.69821C69.9755 1.69821 69.9755 1.69821 69.9756 1.69821C69.9757 1.69821 69.9757 1.69821 69.9758 1.69821C69.9759 1.69821 69.9759 1.69821 69.976 1.69821C69.9761 1.69821 69.9761 1.69821 69.9762 1.69821C69.9763 1.69821 69.9763 1.69821 69.9764 1.69821C69.9765 1.69821 69.9766 1.69821 69.9766 1.69821C69.9767 1.69821 69.9768 1.69821 69.9768 1.69821C69.9769 1.69821 69.977 1.69821 69.977 1.69821C69.9771 1.69821 69.9772 1.69821 69.9772 1.69821C69.9773 1.69821 69.9774 1.69821 69.9774 1.69821C69.9775 1.69821 69.9776 1.69821 69.9777 1.69821C69.9777 1.69821 69.9778 1.69821 69.9779 1.69821C69.9779 1.69821 69.978 1.69821 69.9781 1.69821C69.9781 1.69821 69.9782 1.69821 69.9783 1.69821C69.9783 1.69821 69.9784 1.69821 69.9785 1.69821C69.9785 1.69821 69.9786 1.69821 69.9787 1.69821C69.9787 1.69821 69.9788 1.69821 69.9789 1.69821C69.979 1.69821 69.979 1.69821 69.9791 1.69821C69.9792 1.69821 69.9792 1.69821 69.9793 1.69821C69.9794 1.69821 69.9794 1.69821 69.9795 1.69821C69.9796 1.69821 69.9796 1.69821 69.9797 1.69821C69.9798 1.69821 69.9798 1.69821 69.9799 1.69821C69.98 1.69821 69.98 1.69821 69.9801 1.69821C69.9802 1.69821 69.9803 1.69821 69.9803 1.69821C69.9804 1.69821 69.9805 1.69821 69.9805 1.69821C69.9806 1.69821 69.9807 1.69821 69.9807 1.69821C69.9808 1.69821 69.9809 1.69821 69.9809 1.69821C69.981 1.69821 69.9811 1.69821 69.9811 1.69821C69.9812 1.69821 69.9813 1.69821 69.9814 1.69821C69.9814 1.69821 69.9815 1.69821 69.9816 1.69821C69.9816 1.69821 69.9817 1.69821 69.9818 1.69821C69.9818 1.69821 69.9819 1.69821 69.982 1.69821C69.982 1.69821 69.9821 1.69821 69.9822 1.69821C69.9822 1.69821 69.9823 1.69821 69.9824 1.69821C69.9825 1.69821 69.9825 1.69821 69.9826 1.69821C69.9827 1.69821 69.9827 1.69821 69.9828 1.69821C69.9829 1.69821 69.9829 1.69821 69.983 1.69821C69.9831 1.69821 69.9831 1.69821 69.9832 1.69821C69.9833 1.69821 69.9834 1.69821 69.9834 1.69821C69.9835 1.69821 69.9836 1.69821 69.9836 1.69821C69.9837 1.69821 69.9838 1.69821 69.9838 1.69821C69.9839 1.69821 69.984 1.69821 69.984 1.69821C69.9841 1.69821 69.9842 1.69821 69.9843 1.69821C69.9843 1.69821 69.9844 1.69821 69.9845 1.69821C69.9845 1.69821 69.9846 1.69821 69.9847 1.69821C69.9847 1.69821 69.9848 1.69821 69.9849 1.69821C69.985 1.69821 69.985 1.69821 69.9851 1.69821C69.9852 1.69821 69.9852 1.69821 69.9853 1.69821C69.9854 1.69821 69.9854 1.69821 69.9855 1.69821C69.9856 1.69821 69.9857 1.69821 69.9857 1.69821C69.9858 1.69821 69.9859 1.69821 69.9859 1.69821C69.986 1.69821 69.9861 1.69821 69.9861 1.69821C69.9862 1.69821 69.9863 1.69821 69.9864 1.69821C69.9864 1.69821 69.9865 1.69821 69.9866 1.69821C69.9866 1.69821 69.9867 1.69821 69.9868 1.69821C69.9868 1.69821 69.9869 1.69821 69.987 1.69821C69.9871 1.69821 69.9871 1.69821 69.9872 1.69821C69.9873 1.69821 69.9873 1.69821 69.9874 1.69821C69.9875 1.69821 69.9876 1.69821 69.9876 1.69821C69.9877 1.69821 69.9878 1.69821 69.9878 1.69821C69.9879 1.69821 69.988 1.69821 69.9881 1.69821C69.9881 1.69821 69.9882 1.69821 69.9883 1.69821C69.9883 1.69821 69.9884 1.69821 69.9885 1.69821C69.9885 1.69821 69.9886 1.69821 69.9887 1.69821C69.9888 1.69821 69.9888 1.69821 69.9889 1.69821C69.989 1.69821 69.9891 1.69821 69.9891 1.69821C69.9892 1.69821 69.9893 1.69821 69.9893 1.69821C69.9894 1.69821 69.9895 1.69821 69.9896 1.69821C69.9896 1.69821 69.9897 1.69821 69.9898 1.69821C69.9898 1.69821 69.9899 1.69821 69.99 1.69821C69.9901 1.69821 69.9901 1.69821 69.9902 1.69821C69.9903 1.69821 69.9903 1.69821 69.9904 1.69821C69.9905 1.69821 69.9906 1.69821 69.9906 1.69821C69.9907 1.69821 69.9908 1.69821 69.9909 1.69821C69.9909 1.69821 69.991 1.69821 69.9911 1.69821C69.9911 1.69821 69.9912 1.69821 69.9913 1.69821C69.9914 1.69821 69.9914 1.69821 69.9915 1.69821C69.9916 1.69821 69.9917 1.69821 69.9917 1.69821C69.9918 1.69821 69.9919 1.69821 69.9919 1.69821C69.992 1.69821 69.9921 1.69821 69.9922 1.69821C69.9922 1.69821 69.9923 1.69821 69.9924 1.69821C69.9925 1.69821 69.9925 1.69821 69.9926 1.69821C69.9927 1.69821 69.9928 1.69821 69.9928 1.69821C69.9929 1.69821 69.993 1.69821 69.993 1.69821C69.9931 1.69821 69.9932 1.69821 69.9933 1.69821C69.9933 1.69821 69.9934 1.69821 69.9935 1.69821C69.9936 1.69821 69.9936 1.69821 69.9937 1.69821C69.9938 1.69821 69.9939 1.69821 69.9939 1.69821C69.994 1.69821 69.9941 1.69821 69.9942 1.69821C69.9942 1.69821 69.9943 1.69821 69.9944 1.69821C69.9945 1.69821 69.9945 1.69821 69.9946 1.69821C69.9947 1.69821 69.9948 1.69821 69.9948 1.69821C69.9949 1.69821 69.995 1.69821 69.9951 1.69821C69.9951 1.69821 69.9952 1.69821 69.9953 1.69821C69.9954 1.69821 69.9954 1.69821 69.9955 1.69821C69.9956 1.69821 69.9957 1.69821 69.9958 1.69821C69.9958 1.69821 69.9959 1.69821 69.996 1.69821C69.9961 1.69821 69.9961 1.69821 69.9962 1.69821C69.9963 1.69821 69.9964 1.69821 69.9964 1.69821C69.9965 1.69821 69.9966 1.69821 69.9967 1.69821C69.9967 1.69821 69.9968 1.69821 69.9969 1.69821C69.997 1.69821 69.9971 1.69821 69.9971 1.69821C69.9972 1.69821 69.9973 1.69821 69.9974 1.69821C69.9974 1.69821 69.9975 1.69821 69.9976 1.69821C69.9977 1.69821 69.9977 1.69821 69.9978 1.69821C69.9979 1.69821 69.998 1.69821 69.9981 1.69821C69.9981 1.69821 69.9982 1.69821 69.9983 1.69821C69.9984 1.69821 69.9985 1.69821 69.9985 1.69821C69.9986 1.69821 69.9987 1.69821 69.9988 1.69821C69.9988 1.69821 69.9989 1.69821 69.999 1.69821C69.9991 1.69821 69.9992 1.69821 69.9992 1.69821C69.9993 1.69821 69.9994 1.69821 69.9995 1.69821C69.9995 1.69821 69.9996 1.69821 69.9997 1.69821C69.9998 1.69821 69.9999 1.69821 69.9999 1.69821C70 1.69821 70.0001 1.69821 70.0002 1.69821C70.0003 1.69821 70.0003 1.69821 70.0004 1.69821C70.0005 1.69821 70.0006 1.69821 70.0007 1.69821C70.0007 1.69821 70.0008 1.69821 70.0009 1.69821C70.001 1.69821 70.0011 1.69821 70.0012 1.69821C70.0012 1.69821 70.0013 1.69821 70.0014 1.69821C70.0015 1.69821 70.0016 1.69821 70.0016 1.69821C70.0017 1.69821 70.0018 1.69821 70.0019 1.69821C70.002 1.69821 70.002 1.69821 70.0021 1.69821C70.0022 1.69821 70.0023 1.69821 70.0024 1.69821C70.0024 1.69821 70.0025 1.69821 70.0026 1.69821C70.0027 1.69821 70.0028 1.69821 70.0029 1.69821C70.0029 1.69821 70.003 1.69821 70.0031 1.69821C70.0032 1.69821 70.0033 1.69821 70.0034 1.69821C70.0034 1.69821 70.0035 1.69821 70.0036 1.69821C70.0037 1.69821 70.0038 1.69821 70.0039 1.69821C70.0039 1.69821 70.004 1.69821 70.0041 1.69821C70.0042 1.69821 70.0043 1.69821 70.0044 1.69821C70.0044 1.69821 70.0045 1.69821 70.0046 1.69821C70.0047 1.69821 70.0048 1.69821 70.0049 1.69821C70.0049 1.69821 70.005 1.69821 70.0051 1.69821C70.0052 1.69821 70.0053 1.69821 70.0054 1.69821C70.0054 1.69821 70.0055 1.69821 70.0056 1.69821C70.0057 1.69821 70.0058 1.69821 70.0059 1.69821C70.006 1.69821 70.006 1.69821 70.0061 1.69821C70.0062 1.69821 70.0063 1.69821 70.0064 1.69821C70.0065 1.69821 70.0066 1.69821 70.0066 1.69821C70.0067 1.69821 70.0068 1.69821 70.0069 1.69821C70.007 1.69821 70.0071 1.69821 70.0072 1.69821C70.0072 1.69821 70.0073 1.69821 70.0074 1.69821C70.0075 1.69821 70.0076 1.69821 70.0077 1.69821C70.0078 1.69821 70.0079 1.69821 70.0079 1.69821C70.008 1.69821 70.0081 1.69821 70.0082 1.69821C70.0083 1.69821 70.0084 1.69821 70.0085 1.69821C70.0086 1.69821 70.0087 1.69821 70.0087 1.69821C70.0088 1.69821 70.0089 1.69821 70.009 1.69821C70.0091 1.69821 70.0092 1.69821 70.0093 1.69821C70.0094 1.69821 70.0095 1.69821 70.0095 1.69821C70.0096 1.69821 70.0097 1.69821 70.0098 1.69821C70.0099 1.69821 70.01 1.69821 70.0101 1.69821C70.0102 1.69821 70.0103 1.69821 70.0103 1.69821C70.0104 1.69821 70.0105 1.69821 70.0106 1.69821C70.0107 1.69821 70.0108 1.69821 70.0109 1.69821C70.011 1.69821 70.0111 1.69821 70.0112 1.69821C70.0113 1.69821 70.0113 1.69821 70.0114 1.69821C70.0115 1.69821 70.0116 1.69821 70.0117 1.69821C70.0118 1.69821 70.0119 1.69821 70.012 1.69821C70.0121 1.69821 70.0122 1.69821 70.0123 1.69821C70.0124 1.69821 70.0124 1.69821 70.0125 1.69821C70.0126 1.69821 70.0127 1.69821 70.0128 1.69821C70.0129 1.69821 70.013 1.69821 70.0131 1.69821C70.0132 1.69821 70.0133 1.69821 70.0134 1.69821C70.0135 1.69821 70.0136 1.69821 70.0137 1.69821C70.0137 1.69821 70.0138 1.69821 70.0139 1.69821C70.014 1.69821 70.0141 1.69821 70.0142 1.69821C70.0143 1.69821 70.0144 1.69821 70.0145 1.69821C70.0146 1.69821 70.0147 1.69821 70.0148 1.69821C70.0149 1.69821 70.015 1.69821 70.0151 1.69821C70.0152 1.69821 70.0153 1.69821 70.0154 1.69821C70.0155 1.69821 70.0156 1.69821 70.0157 1.69821C70.0157 1.69821 70.0158 1.69821 70.0159 1.69821C70.016 1.69821 70.0161 1.69821 70.0162 1.69821C70.0163 1.69821 70.0164 1.69821 70.0165 1.69821C70.0166 1.69821 70.0167 1.69821 70.0168 1.69821C70.0169 1.69821 70.017 1.69821 70.0171 1.69821C70.0172 1.69821 70.0173 1.69821 70.0174 1.69821C70.0175 1.69821 70.0176 1.69821 70.0177 1.69821C70.0178 1.69821 70.0179 1.69821 70.018 1.69821C70.0181 1.69821 70.0182 1.69821 70.0183 1.69821C70.0184 1.69821 70.0185 1.69821 70.0186 1.69821C70.0187 1.69821 70.0188 1.69821 70.0189 1.69821C70.019 1.69821 70.0191 1.69821 70.0192 1.69821C70.0193 1.69821 70.0194 1.69821 70.0195 1.69821C70.0196 1.69821 70.0197 1.69821 70.0198 1.69821C70.0199 1.69821 70.02 1.69821 70.0201 1.69821C70.0202 1.69821 70.0203 1.69821 70.0204 1.69821C70.0205 1.69821 70.0206 1.69821 70.0207 1.69821C70.0208 1.69821 70.0209 1.69821 70.021 1.69821C70.0211 1.69821 70.0212 1.69821 70.0213 1.69821C70.0214 1.69821 70.0215 1.69821 70.0216 1.69821C70.0217 1.69821 70.0218 1.69821 70.0219 1.69821C70.0221 1.69821 70.0222 1.69821 70.0223 1.69821C70.0224 1.69821 70.0225 1.69821 70.0226 1.69821C70.0227 1.69821 70.0228 1.69821 70.0229 1.69821C70.023 1.69821 70.0231 1.69821 70.0232 1.69821C70.0233 1.69821 70.0234 1.69821 70.0235 1.69821C70.0236 1.69821 70.0237 1.69821 70.0238 1.69821C70.0239 1.69821 70.0241 1.69821 70.0242 1.69821C70.0243 1.69821 70.0244 1.69821 70.0245 1.69821C70.0246 1.69821 70.0247 1.69821 70.0248 1.69821C70.0249 1.69821 70.025 1.69821 70.0251 1.69821C70.0252 1.69821 70.0253 1.69821 70.0254 1.69821C70.0256 1.69821 70.0257 1.69821 70.0258 1.69821C70.0259 1.69821 70.026 1.69821 70.0261 1.69821C70.0262 1.69821 70.0263 1.69821 70.0264 1.69821C70.0265 1.69821 70.0266 1.69821 70.0268 1.69821C70.0269 1.69821 70.027 1.69821 70.0271 1.69821C70.0272 1.69821 70.0273 1.69821 70.0274 1.69821C70.0275 1.69821 70.0276 1.69821 70.0277 1.69821C70.0279 1.69821 70.028 1.69821 70.0281 1.69821C70.0282 1.69821 70.0283 1.69821 70.0284 1.69821C70.0285 1.69821 70.0286 1.69821 70.0288 1.69821C70.0289 1.69821 70.029 1.69821 70.0291 1.69821C70.0292 1.69821 70.0293 1.69821 70.0294 1.69821C70.0295 1.69821 70.0297 1.69821 70.0298 1.69821C70.0299 1.69821 70.03 1.69821 70.0301 1.69821C70.0302 1.69821 70.0303 1.69821 70.0305 1.69821C70.0306 1.69821 70.0307 1.69821 70.0308 1.69821C70.0309 1.69821 70.031 1.69821 70.0311 1.69821C70.0313 1.69821 70.0314 1.69821 70.0315 1.69821C70.0316 1.69821 70.0317 1.69821 70.0318 1.69821C70.032 1.69821 70.0321 1.69821 70.0322 1.69821C70.0323 1.69821 70.0324 1.69821 70.0325 1.69821C70.0327 1.69821 70.0328 1.69821 70.0329 1.69821C70.033 1.69821 70.0331 1.69821 70.0332 1.69821C70.0334 1.69821 70.0335 1.69821 70.0336 1.69821C70.0337 1.69821 70.0338 1.69821 70.034 1.69821C70.0341 1.69821 70.0342 1.69821 70.0343 1.69821C70.0344 1.69821 70.0346 1.69821 70.0347 1.69821C70.0348 1.69821 70.0349 1.69821 70.035 1.69821C70.0352 1.69821 70.0353 1.69821 70.0354 1.69821C70.0355 1.69821 70.0356 1.69821 70.0358 1.69821C70.0359 1.69821 70.036 1.69821 70.0361 1.69821C70.0362 1.69821 70.0364 1.69821 70.0365 1.69821C70.0366 1.69821 70.0367 1.69821 70.0369 1.69821C70.037 1.69821 70.0371 1.69821 70.0372 1.69821C70.0374 1.69821 70.0375 1.69821 70.0376 1.69821C70.0377 1.69821 70.0378 1.69821 70.038 1.69821C70.0381 1.69821 70.0382 1.69821 70.0383 1.69821C70.0385 1.69821 70.0386 1.69821 70.0387 1.69821C70.0388 1.69821 70.039 1.69821 70.0391 1.69821C70.0392 1.69821 70.0393 1.69821 70.0395 1.69821C70.0396 1.69821 70.0397 1.69821 70.0399 1.69821C70.04 1.69821 70.0401 1.69821 70.0402 1.69821C70.0404 1.69821 70.0405 1.69821 70.0406 1.69821C70.0407 1.69821 70.0409 1.69821 70.041 1.69821C70.0411 1.69821 70.0413 1.69821 70.0414 1.69821C70.0415 1.69821 70.0416 1.69821 70.0418 1.69821C70.0419 1.69821 70.042 1.69821 70.0422 1.69821C70.0423 1.69821 70.0424 1.69821 70.0425 1.69821C70.0427 1.69821 70.0428 1.69821 70.0429 1.69821C70.0431 1.69821 70.0432 1.69821 70.0433 1.69821C70.0435 1.69821 70.0436 1.69821 70.0437 1.69821C70.0439 1.69821 70.044 1.69821 70.0441 1.69821C70.0443 1.69821 70.0444 1.69821 70.0445 1.69821C70.0447 1.69821 70.0448 1.69821 70.0449 1.69821C70.0451 1.69821 70.0452 1.69821 70.0453 1.69821C70.0455 1.69821 70.0456 1.69821 70.0457 1.69821C70.0459 1.69821 70.046 1.69821 70.0461 1.69821C70.0463 1.69821 70.0464 1.69821 70.0465 1.69821C70.0467 1.69821 70.0468 1.69821 70.0469 1.69821C70.0471 1.69821 70.0472 1.69821 70.0473 1.69821C70.0475 1.69821 70.0476 1.69821 70.0478 1.69821V1.29821C70.0476 1.29821 70.0475 1.29821 70.0473 1.29821C70.0472 1.29821 70.0471 1.29821 70.0469 1.29821C70.0468 1.29821 70.0467 1.29821 70.0465 1.29821C70.0464 1.29821 70.0463 1.29821 70.0461 1.29821C70.046 1.29821 70.0459 1.29821 70.0457 1.29821C70.0456 1.29821 70.0455 1.29821 70.0453 1.29821C70.0452 1.29821 70.0451 1.29821 70.0449 1.29821C70.0448 1.29821 70.0447 1.29821 70.0445 1.29821C70.0444 1.29821 70.0443 1.29821 70.0441 1.29821C70.044 1.29821 70.0439 1.29821 70.0437 1.29821C70.0436 1.29821 70.0435 1.29821 70.0433 1.29821C70.0432 1.29821 70.0431 1.29821 70.0429 1.29821C70.0428 1.29821 70.0427 1.29821 70.0425 1.29821C70.0424 1.29821 70.0423 1.29821 70.0422 1.29821C70.042 1.29821 70.0419 1.29821 70.0418 1.29821C70.0416 1.29821 70.0415 1.29821 70.0414 1.29821C70.0413 1.29821 70.0411 1.29821 70.041 1.29821C70.0409 1.29821 70.0407 1.29821 70.0406 1.29821C70.0405 1.29821 70.0404 1.29821 70.0402 1.29821C70.0401 1.29821 70.04 1.29821 70.0399 1.29821C70.0397 1.29821 70.0396 1.29821 70.0395 1.29821C70.0393 1.29821 70.0392 1.29821 70.0391 1.29821C70.039 1.29821 70.0388 1.29821 70.0387 1.29821C70.0386 1.29821 70.0385 1.29821 70.0383 1.29821C70.0382 1.29821 70.0381 1.29821 70.038 1.29821C70.0378 1.29821 70.0377 1.29821 70.0376 1.29821C70.0375 1.29821 70.0374 1.29821 70.0372 1.29821C70.0371 1.29821 70.037 1.29821 70.0369 1.29821C70.0367 1.29821 70.0366 1.29821 70.0365 1.29821C70.0364 1.29821 70.0362 1.29821 70.0361 1.29821C70.036 1.29821 70.0359 1.29821 70.0358 1.29821C70.0356 1.29821 70.0355 1.29821 70.0354 1.29821C70.0353 1.29821 70.0352 1.29821 70.035 1.29821C70.0349 1.29821 70.0348 1.29821 70.0347 1.29821C70.0346 1.29821 70.0344 1.29821 70.0343 1.29821C70.0342 1.29821 70.0341 1.29821 70.034 1.29821C70.0338 1.29821 70.0337 1.29821 70.0336 1.29821C70.0335 1.29821 70.0334 1.29821 70.0332 1.29821C70.0331 1.29821 70.033 1.29821 70.0329 1.29821C70.0328 1.29821 70.0327 1.29821 70.0325 1.29821C70.0324 1.29821 70.0323 1.29821 70.0322 1.29821C70.0321 1.29821 70.032 1.29821 70.0318 1.29821C70.0317 1.29821 70.0316 1.29821 70.0315 1.29821C70.0314 1.29821 70.0313 1.29821 70.0311 1.29821C70.031 1.29821 70.0309 1.29821 70.0308 1.29821C70.0307 1.29821 70.0306 1.29821 70.0305 1.29821C70.0303 1.29821 70.0302 1.29821 70.0301 1.29821C70.03 1.29821 70.0299 1.29821 70.0298 1.29821C70.0297 1.29821 70.0295 1.29821 70.0294 1.29821C70.0293 1.29821 70.0292 1.29821 70.0291 1.29821C70.029 1.29821 70.0289 1.29821 70.0288 1.29821C70.0286 1.29821 70.0285 1.29821 70.0284 1.29821C70.0283 1.29821 70.0282 1.29821 70.0281 1.29821C70.028 1.29821 70.0279 1.29821 70.0277 1.29821C70.0276 1.29821 70.0275 1.29821 70.0274 1.29821C70.0273 1.29821 70.0272 1.29821 70.0271 1.29821C70.027 1.29821 70.0269 1.29821 70.0268 1.29821C70.0266 1.29821 70.0265 1.29821 70.0264 1.29821C70.0263 1.29821 70.0262 1.29821 70.0261 1.29821C70.026 1.29821 70.0259 1.29821 70.0258 1.29821C70.0257 1.29821 70.0256 1.29821 70.0254 1.29821C70.0253 1.29821 70.0252 1.29821 70.0251 1.29821C70.025 1.29821 70.0249 1.29821 70.0248 1.29821C70.0247 1.29821 70.0246 1.29821 70.0245 1.29821C70.0244 1.29821 70.0243 1.29821 70.0242 1.29821C70.0241 1.29821 70.0239 1.29821 70.0238 1.29821C70.0237 1.29821 70.0236 1.29821 70.0235 1.29821C70.0234 1.29821 70.0233 1.29821 70.0232 1.29821C70.0231 1.29821 70.023 1.29821 70.0229 1.29821C70.0228 1.29821 70.0227 1.29821 70.0226 1.29821C70.0225 1.29821 70.0224 1.29821 70.0223 1.29821C70.0222 1.29821 70.0221 1.29821 70.0219 1.29821C70.0218 1.29821 70.0217 1.29821 70.0216 1.29821C70.0215 1.29821 70.0214 1.29821 70.0213 1.29821C70.0212 1.29821 70.0211 1.29821 70.021 1.29821C70.0209 1.29821 70.0208 1.29821 70.0207 1.29821C70.0206 1.29821 70.0205 1.29821 70.0204 1.29821C70.0203 1.29821 70.0202 1.29821 70.0201 1.29821C70.02 1.29821 70.0199 1.29821 70.0198 1.29821C70.0197 1.29821 70.0196 1.29821 70.0195 1.29821C70.0194 1.29821 70.0193 1.29821 70.0192 1.29821C70.0191 1.29821 70.019 1.29821 70.0189 1.29821C70.0188 1.29821 70.0187 1.29821 70.0186 1.29821C70.0185 1.29821 70.0184 1.29821 70.0183 1.29821C70.0182 1.29821 70.0181 1.29821 70.018 1.29821C70.0179 1.29821 70.0178 1.29821 70.0177 1.29821C70.0176 1.29821 70.0175 1.29821 70.0174 1.29821C70.0173 1.29821 70.0172 1.29821 70.0171 1.29821C70.017 1.29821 70.0169 1.29821 70.0168 1.29821C70.0167 1.29821 70.0166 1.29821 70.0165 1.29821C70.0164 1.29821 70.0163 1.29821 70.0162 1.29821C70.0161 1.29821 70.016 1.29821 70.0159 1.29821C70.0158 1.29821 70.0157 1.29821 70.0157 1.29821C70.0156 1.29821 70.0155 1.29821 70.0154 1.29821C70.0153 1.29821 70.0152 1.29821 70.0151 1.29821C70.015 1.29821 70.0149 1.29821 70.0148 1.29821C70.0147 1.29821 70.0146 1.29821 70.0145 1.29821C70.0144 1.29821 70.0143 1.29821 70.0142 1.29821C70.0141 1.29821 70.014 1.29821 70.0139 1.29821C70.0138 1.29821 70.0137 1.29821 70.0137 1.29821C70.0136 1.29821 70.0135 1.29821 70.0134 1.29821C70.0133 1.29821 70.0132 1.29821 70.0131 1.29821C70.013 1.29821 70.0129 1.29821 70.0128 1.29821C70.0127 1.29821 70.0126 1.29821 70.0125 1.29821C70.0124 1.29821 70.0124 1.29821 70.0123 1.29821C70.0122 1.29821 70.0121 1.29821 70.012 1.29821C70.0119 1.29821 70.0118 1.29821 70.0117 1.29821C70.0116 1.29821 70.0115 1.29821 70.0114 1.29821C70.0113 1.29821 70.0113 1.29821 70.0112 1.29821C70.0111 1.29821 70.011 1.29821 70.0109 1.29821C70.0108 1.29821 70.0107 1.29821 70.0106 1.29821C70.0105 1.29821 70.0104 1.29821 70.0103 1.29821C70.0103 1.29821 70.0102 1.29821 70.0101 1.29821C70.01 1.29821 70.0099 1.29821 70.0098 1.29821C70.0097 1.29821 70.0096 1.29821 70.0095 1.29821C70.0095 1.29821 70.0094 1.29821 70.0093 1.29821C70.0092 1.29821 70.0091 1.29821 70.009 1.29821C70.0089 1.29821 70.0088 1.29821 70.0087 1.29821C70.0087 1.29821 70.0086 1.29821 70.0085 1.29821C70.0084 1.29821 70.0083 1.29821 70.0082 1.29821C70.0081 1.29821 70.008 1.29821 70.0079 1.29821C70.0079 1.29821 70.0078 1.29821 70.0077 1.29821C70.0076 1.29821 70.0075 1.29821 70.0074 1.29821C70.0073 1.29821 70.0072 1.29821 70.0072 1.29821C70.0071 1.29821 70.007 1.29821 70.0069 1.29821C70.0068 1.29821 70.0067 1.29821 70.0066 1.29821C70.0066 1.29821 70.0065 1.29821 70.0064 1.29821C70.0063 1.29821 70.0062 1.29821 70.0061 1.29821C70.006 1.29821 70.006 1.29821 70.0059 1.29821C70.0058 1.29821 70.0057 1.29821 70.0056 1.29821C70.0055 1.29821 70.0054 1.29821 70.0054 1.29821C70.0053 1.29821 70.0052 1.29821 70.0051 1.29821C70.005 1.29821 70.0049 1.29821 70.0049 1.29821C70.0048 1.29821 70.0047 1.29821 70.0046 1.29821C70.0045 1.29821 70.0044 1.29821 70.0044 1.29821C70.0043 1.29821 70.0042 1.29821 70.0041 1.29821C70.004 1.29821 70.0039 1.29821 70.0039 1.29821C70.0038 1.29821 70.0037 1.29821 70.0036 1.29821C70.0035 1.29821 70.0034 1.29821 70.0034 1.29821C70.0033 1.29821 70.0032 1.29821 70.0031 1.29821C70.003 1.29821 70.0029 1.29821 70.0029 1.29821C70.0028 1.29821 70.0027 1.29821 70.0026 1.29821C70.0025 1.29821 70.0024 1.29821 70.0024 1.29821C70.0023 1.29821 70.0022 1.29821 70.0021 1.29821C70.002 1.29821 70.002 1.29821 70.0019 1.29821C70.0018 1.29821 70.0017 1.29821 70.0016 1.29821C70.0016 1.29821 70.0015 1.29821 70.0014 1.29821C70.0013 1.29821 70.0012 1.29821 70.0012 1.29821C70.0011 1.29821 70.001 1.29821 70.0009 1.29821C70.0008 1.29821 70.0007 1.29821 70.0007 1.29821C70.0006 1.29821 70.0005 1.29821 70.0004 1.29821C70.0003 1.29821 70.0003 1.29821 70.0002 1.29821C70.0001 1.29821 70 1.29821 69.9999 1.29821C69.9999 1.29821 69.9998 1.29821 69.9997 1.29821C69.9996 1.29821 69.9995 1.29821 69.9995 1.29821C69.9994 1.29821 69.9993 1.29821 69.9992 1.29821C69.9992 1.29821 69.9991 1.29821 69.999 1.29821C69.9989 1.29821 69.9988 1.29821 69.9988 1.29821C69.9987 1.29821 69.9986 1.29821 69.9985 1.29821C69.9985 1.29821 69.9984 1.29821 69.9983 1.29821C69.9982 1.29821 69.9981 1.29821 69.9981 1.29821C69.998 1.29821 69.9979 1.29821 69.9978 1.29821C69.9977 1.29821 69.9977 1.29821 69.9976 1.29821C69.9975 1.29821 69.9974 1.29821 69.9974 1.29821C69.9973 1.29821 69.9972 1.29821 69.9971 1.29821C69.9971 1.29821 69.997 1.29821 69.9969 1.29821C69.9968 1.29821 69.9967 1.29821 69.9967 1.29821C69.9966 1.29821 69.9965 1.29821 69.9964 1.29821C69.9964 1.29821 69.9963 1.29821 69.9962 1.29821C69.9961 1.29821 69.9961 1.29821 69.996 1.29821C69.9959 1.29821 69.9958 1.29821 69.9958 1.29821C69.9957 1.29821 69.9956 1.29821 69.9955 1.29821C69.9954 1.29821 69.9954 1.29821 69.9953 1.29821C69.9952 1.29821 69.9951 1.29821 69.9951 1.29821C69.995 1.29821 69.9949 1.29821 69.9948 1.29821C69.9948 1.29821 69.9947 1.29821 69.9946 1.29821C69.9945 1.29821 69.9945 1.29821 69.9944 1.29821C69.9943 1.29821 69.9942 1.29821 69.9942 1.29821C69.9941 1.29821 69.994 1.29821 69.9939 1.29821C69.9939 1.29821 69.9938 1.29821 69.9937 1.29821C69.9936 1.29821 69.9936 1.29821 69.9935 1.29821C69.9934 1.29821 69.9933 1.29821 69.9933 1.29821C69.9932 1.29821 69.9931 1.29821 69.993 1.29821C69.993 1.29821 69.9929 1.29821 69.9928 1.29821C69.9928 1.29821 69.9927 1.29821 69.9926 1.29821C69.9925 1.29821 69.9925 1.29821 69.9924 1.29821C69.9923 1.29821 69.9922 1.29821 69.9922 1.29821C69.9921 1.29821 69.992 1.29821 69.9919 1.29821C69.9919 1.29821 69.9918 1.29821 69.9917 1.29821C69.9917 1.29821 69.9916 1.29821 69.9915 1.29821C69.9914 1.29821 69.9914 1.29821 69.9913 1.29821C69.9912 1.29821 69.9911 1.29821 69.9911 1.29821C69.991 1.29821 69.9909 1.29821 69.9909 1.29821C69.9908 1.29821 69.9907 1.29821 69.9906 1.29821C69.9906 1.29821 69.9905 1.29821 69.9904 1.29821C69.9903 1.29821 69.9903 1.29821 69.9902 1.29821C69.9901 1.29821 69.9901 1.29821 69.99 1.29821C69.9899 1.29821 69.9898 1.29821 69.9898 1.29821C69.9897 1.29821 69.9896 1.29821 69.9896 1.29821C69.9895 1.29821 69.9894 1.29821 69.9893 1.29821C69.9893 1.29821 69.9892 1.29821 69.9891 1.29821C69.9891 1.29821 69.989 1.29821 69.9889 1.29821C69.9888 1.29821 69.9888 1.29821 69.9887 1.29821C69.9886 1.29821 69.9885 1.29821 69.9885 1.29821C69.9884 1.29821 69.9883 1.29821 69.9883 1.29821C69.9882 1.29821 69.9881 1.29821 69.9881 1.29821C69.988 1.29821 69.9879 1.29821 69.9878 1.29821C69.9878 1.29821 69.9877 1.29821 69.9876 1.29821C69.9876 1.29821 69.9875 1.29821 69.9874 1.29821C69.9873 1.29821 69.9873 1.29821 69.9872 1.29821C69.9871 1.29821 69.9871 1.29821 69.987 1.29821C69.9869 1.29821 69.9868 1.29821 69.9868 1.29821C69.9867 1.29821 69.9866 1.29821 69.9866 1.29821C69.9865 1.29821 69.9864 1.29821 69.9864 1.29821C69.9863 1.29821 69.9862 1.29821 69.9861 1.29821C69.9861 1.29821 69.986 1.29821 69.9859 1.29821C69.9859 1.29821 69.9858 1.29821 69.9857 1.29821C69.9857 1.29821 69.9856 1.29821 69.9855 1.29821C69.9854 1.29821 69.9854 1.29821 69.9853 1.29821C69.9852 1.29821 69.9852 1.29821 69.9851 1.29821C69.985 1.29821 69.985 1.29821 69.9849 1.29821C69.9848 1.29821 69.9847 1.29821 69.9847 1.29821C69.9846 1.29821 69.9845 1.29821 69.9845 1.29821C69.9844 1.29821 69.9843 1.29821 69.9843 1.29821C69.9842 1.29821 69.9841 1.29821 69.984 1.29821C69.984 1.29821 69.9839 1.29821 69.9838 1.29821C69.9838 1.29821 69.9837 1.29821 69.9836 1.29821C69.9836 1.29821 69.9835 1.29821 69.9834 1.29821C69.9834 1.29821 69.9833 1.29821 69.9832 1.29821C69.9831 1.29821 69.9831 1.29821 69.983 1.29821C69.9829 1.29821 69.9829 1.29821 69.9828 1.29821C69.9827 1.29821 69.9827 1.29821 69.9826 1.29821C69.9825 1.29821 69.9825 1.29821 69.9824 1.29821C69.9823 1.29821 69.9822 1.29821 69.9822 1.29821C69.9821 1.29821 69.982 1.29821 69.982 1.29821C69.9819 1.29821 69.9818 1.29821 69.9818 1.29821C69.9817 1.29821 69.9816 1.29821 69.9816 1.29821C69.9815 1.29821 69.9814 1.29821 69.9814 1.29821C69.9813 1.29821 69.9812 1.29821 69.9811 1.29821C69.9811 1.29821 69.981 1.29821 69.9809 1.29821C69.9809 1.29821 69.9808 1.29821 69.9807 1.29821C69.9807 1.29821 69.9806 1.29821 69.9805 1.29821C69.9805 1.29821 69.9804 1.29821 69.9803 1.29821C69.9803 1.29821 69.9802 1.29821 69.9801 1.29821C69.98 1.29821 69.98 1.29821 69.9799 1.29821C69.9798 1.29821 69.9798 1.29821 69.9797 1.29821C69.9796 1.29821 69.9796 1.29821 69.9795 1.29821C69.9794 1.29821 69.9794 1.29821 69.9793 1.29821C69.9792 1.29821 69.9792 1.29821 69.9791 1.29821C69.979 1.29821 69.979 1.29821 69.9789 1.29821C69.9788 1.29821 69.9787 1.29821 69.9787 1.29821C69.9786 1.29821 69.9785 1.29821 69.9785 1.29821C69.9784 1.29821 69.9783 1.29821 69.9783 1.29821C69.9782 1.29821 69.9781 1.29821 69.9781 1.29821C69.978 1.29821 69.9779 1.29821 69.9779 1.29821C69.9778 1.29821 69.9777 1.29821 69.9777 1.29821C69.9776 1.29821 69.9775 1.29821 69.9774 1.29821C69.9774 1.29821 69.9773 1.29821 69.9772 1.29821C69.9772 1.29821 69.9771 1.29821 69.977 1.29821C69.977 1.29821 69.9769 1.29821 69.9768 1.29821C69.9768 1.29821 69.9767 1.29821 69.9766 1.29821C69.9766 1.29821 69.9765 1.29821 69.9764 1.29821C69.9763 1.29821 69.9763 1.29821 69.9762 1.29821C69.9761 1.29821 69.9761 1.29821 69.976 1.29821C69.9759 1.29821 69.9759 1.29821 69.9758 1.29821C69.9757 1.29821 69.9757 1.29821 69.9756 1.29821C69.9755 1.29821 69.9755 1.29821 69.9754 1.29821C69.9753 1.29821 69.9753 1.29821 69.9752 1.29821C69.9751 1.29821 69.975 1.29821 69.975 1.29821C69.9749 1.29821 69.9748 1.29821 69.9748 1.29821C69.9747 1.29821 69.9746 1.29821 69.9746 1.29821C69.9745 1.29821 69.9744 1.29821 69.9744 1.29821C69.9743 1.29821 69.9742 1.29821 69.9742 1.29821C69.9741 1.29821 69.974 1.29821 69.9739 1.29821C69.9739 1.29821 69.9738 1.29821 69.9737 1.29821C69.9737 1.29821 69.9736 1.29821 69.9735 1.29821C69.9735 1.29821 69.9734 1.29821 69.9733 1.29821C69.9733 1.29821 69.9732 1.29821 69.9731 1.29821C69.9731 1.29821 69.973 1.29821 69.9729 1.29821C69.9728 1.29821 69.9728 1.29821 69.9727 1.29821C69.9726 1.29821 69.9726 1.29821 69.9725 1.29821C69.9724 1.29821 69.9724 1.29821 69.9723 1.29821C69.9722 1.29821 69.9722 1.29821 69.9721 1.29821C69.972 1.29821 69.9719 1.29821 69.9719 1.29821C69.9718 1.29821 69.9717 1.29821 69.9717 1.29821C69.9716 1.29821 69.9715 1.29821 69.9715 1.29821C69.9714 1.29821 69.9713 1.29821 69.9713 1.29821C69.9712 1.29821 69.9711 1.29821 69.971 1.29821C69.971 1.29821 69.9709 1.29821 69.9708 1.29821C69.9708 1.29821 69.9707 1.29821 69.9706 1.29821C69.9706 1.29821 69.9705 1.29821 69.9704 1.29821C69.9704 1.29821 69.9703 1.29821 69.9702 1.29821C69.9701 1.29821 69.9701 1.29821 69.97 1.29821C69.9699 1.29821 69.9699 1.29821 69.9698 1.29821C69.9697 1.29821 69.9697 1.29821 69.9696 1.29821C69.9695 1.29821 69.9694 1.29821 69.9694 1.29821C69.9693 1.29821 69.9692 1.29821 69.9692 1.29821C69.9691 1.29821 69.969 1.29821 69.9689 1.29821C69.9689 1.29821 69.9688 1.29821 69.9687 1.29821C69.9687 1.29821 69.9686 1.29821 69.9685 1.29821C69.9685 1.29821 69.9684 1.29821 69.9683 1.29821C69.9682 1.29821 69.9682 1.29821 69.9681 1.29821C69.968 1.29821 69.968 1.29821 69.9679 1.29821C69.9678 1.29821 69.9678 1.29821 69.9677 1.29821C69.9676 1.29821 69.9675 1.29821 69.9675 1.29821C69.9674 1.29821 69.9673 1.29821 69.9673 1.29821C69.9672 1.29821 69.9671 1.29821 69.967 1.29821C69.967 1.29821 69.9669 1.29821 69.9668 1.29821C69.9668 1.29821 69.9667 1.29821 69.9666 1.29821C69.9665 1.29821 69.9665 1.29821 69.9664 1.29821C69.9663 1.29821 69.9663 1.29821 69.9662 1.29821C69.9661 1.29821 69.966 1.29821 69.966 1.29821C69.9659 1.29821 69.9658 1.29821 69.9658 1.29821C69.9657 1.29821 69.9656 1.29821 69.9655 1.29821C69.9655 1.29821 69.9654 1.29821 69.9653 1.29821C69.9652 1.29821 69.9652 1.29821 69.9651 1.29821C69.965 1.29821 69.965 1.29821 69.9649 1.29821C69.9648 1.29821 69.9647 1.29821 69.9647 1.29821C69.9646 1.29821 69.9645 1.29821 69.9645 1.29821C69.9644 1.29821 69.9643 1.29821 69.9642 1.29821C69.9642 1.29821 69.9641 1.29821 69.964 1.29821C69.9639 1.29821 69.9639 1.29821 69.9638 1.29821C69.9637 1.29821 69.9636 1.29821 69.9636 1.29821C69.9635 1.29821 69.9634 1.29821 69.9634 1.29821C69.9633 1.29821 69.9632 1.29821 69.9631 1.29821C69.9631 1.29821 69.963 1.29821 69.9629 1.29821C69.9628 1.29821 69.9628 1.29821 69.9627 1.29821C69.9626 1.29821 69.9625 1.29821 69.9625 1.29821C69.9624 1.29821 69.9623 1.29821 69.9622 1.29821C69.9622 1.29821 69.9621 1.29821 69.962 1.29821C69.962 1.29821 69.9619 1.29821 69.9618 1.29821C69.9617 1.29821 69.9617 1.29821 69.9616 1.29821C69.9615 1.29821 69.9614 1.29821 69.9614 1.29821C69.9613 1.29821 69.9612 1.29821 69.9611 1.29821C69.9611 1.29821 69.961 1.29821 69.9609 1.29821C69.9608 1.29821 69.9608 1.29821 69.9607 1.29821C69.9606 1.29821 69.9605 1.29821 69.9605 1.29821C69.9604 1.29821 69.9603 1.29821 69.9602 1.29821C69.9602 1.29821 69.9601 1.29821 69.96 1.29821C69.9599 1.29821 69.9599 1.29821 69.9598 1.29821C69.9597 1.29821 69.9596 1.29821 69.9595 1.29821C69.9595 1.29821 69.9594 1.29821 69.9593 1.29821C69.9593 1.29821 69.9592 1.29821 69.9591 1.29821C69.959 1.29821 69.9589 1.29821 69.9589 1.29821C69.9588 1.29821 69.9587 1.29821 69.9586 1.29821C69.9586 1.29821 69.9585 1.29821 69.9584 1.29821C69.9583 1.29821 69.9583 1.29821 69.9582 1.29821C69.9581 1.29821 69.958 1.29821 69.9579 1.29821C69.9579 1.29821 69.9578 1.29821 69.9577 1.29821C69.9576 1.29821 69.9576 1.29821 69.9575 1.29821C69.9574 1.29821 69.9573 1.29821 69.9572 1.29821C69.9572 1.29821 69.9571 1.29821 69.957 1.29821C69.9569 1.29821 69.9569 1.29821 69.9568 1.29821C69.9567 1.29821 69.9566 1.29821 69.9565 1.29821C69.9565 1.29821 69.9564 1.29821 69.9563 1.29821C69.9562 1.29821 69.9561 1.29821 69.9561 1.29821C69.956 1.29821 69.9559 1.29821 69.9558 1.29821C69.9557 1.29821 69.9557 1.29821 69.9556 1.29821C69.9555 1.29821 69.9554 1.29821 69.9554 1.29821C69.9553 1.29821 69.9552 1.29821 69.9551 1.29821C69.955 1.29821 69.955 1.29821 69.9549 1.29821C69.9548 1.29821 69.9547 1.29821 69.9546 1.29821C69.9546 1.29821 69.9545 1.29821 69.9544 1.29821C69.9543 1.29821 69.9542 1.29821 69.9542 1.29821C69.9541 1.29821 69.954 1.29821 69.9539 1.29821C69.9538 1.29821 69.9538 1.29821 69.9537 1.29821C69.9536 1.29821 69.9535 1.29821 69.9534 1.29821C69.9533 1.29821 69.9533 1.29821 69.9532 1.29821C69.9531 1.29821 69.953 1.29821 69.9529 1.29821C69.9529 1.29821 69.9528 1.29821 69.9527 1.29821C69.9526 1.29821 69.9525 1.29821 69.9524 1.29821C69.9524 1.29821 69.9523 1.29821 69.9522 1.29821C69.9521 1.29821 69.952 1.29821 69.952 1.29821C69.9519 1.29821 69.9518 1.29821 69.9517 1.29821C69.9516 1.29821 69.9515 1.29821 69.9514 1.29821C69.9514 1.29821 69.9513 1.29821 69.9512 1.29821C69.9511 1.29821 69.951 1.29821 69.951 1.29821C69.9509 1.29821 69.9508 1.29821 69.9507 1.29821C69.9506 1.29821 69.9505 1.29821 69.9504 1.29821C69.9504 1.29821 69.9503 1.29821 69.9502 1.29821C69.9501 1.29821 69.95 1.29821 69.9499 1.29821C69.9499 1.29821 69.9498 1.29821 69.9497 1.29821C69.9496 1.29821 69.9495 1.29821 69.9494 1.29821C69.9493 1.29821 69.9493 1.29821 69.9492 1.29821C69.9491 1.29821 69.949 1.29821 69.9489 1.29821C69.9488 1.29821 69.9487 1.29821 69.9487 1.29821C69.9486 1.29821 69.9485 1.29821 69.9484 1.29821C69.9483 1.29821 69.9482 1.29821 69.9481 1.29821C69.9481 1.29821 69.948 1.29821 69.9479 1.29821C69.9478 1.29821 69.9477 1.29821 69.9476 1.29821C69.9475 1.29821 69.9474 1.29821 69.9474 1.29821C69.9473 1.29821 69.9472 1.29821 69.9471 1.29821C69.947 1.29821 69.9469 1.29821 69.9468 1.29821C69.9467 1.29821 69.9466 1.29821 69.9466 1.29821C69.9465 1.29821 69.9464 1.29821 69.9463 1.29821C69.9462 1.29821 69.9461 1.29821 69.946 1.29821C69.9459 1.29821 69.9459 1.29821 69.9458 1.29821C69.9457 1.29821 69.9456 1.29821 69.9455 1.29821C69.9454 1.29821 69.9453 1.29821 69.9452 1.29821C69.9451 1.29821 69.945 1.29821 69.945 1.29821C69.9449 1.29821 69.9448 1.29821 69.9447 1.29821C69.9446 1.29821 69.9445 1.29821 69.9444 1.29821C69.9443 1.29821 69.9442 1.29821 69.9441 1.29821C69.9441 1.29821 69.944 1.29821 69.9439 1.29821C69.9438 1.29821 69.9437 1.29821 69.9436 1.29821C69.9435 1.29821 69.9434 1.29821 69.9433 1.29821C69.9432 1.29821 69.9431 1.29821 69.943 1.29821C69.9429 1.29821 69.9429 1.29821 69.9428 1.29821C69.9427 1.29821 69.9426 1.29821 69.9425 1.29821C69.9424 1.29821 69.9423 1.29821 69.9422 1.29821C69.9421 1.29821 69.942 1.29821 69.9419 1.29821C69.9418 1.29821 69.9417 1.29821 69.9416 1.29821C69.9416 1.29821 69.9415 1.29821 69.9414 1.29821C69.9413 1.29821 69.9412 1.29821 69.9411 1.29821C69.941 1.29821 69.9409 1.29821 69.9408 1.29821C69.9407 1.29821 69.9406 1.29821 69.9405 1.29821C69.9404 1.29821 69.9403 1.29821 69.9402 1.29821C69.9401 1.29821 69.94 1.29821 69.9399 1.29821C69.9398 1.29821 69.9397 1.29821 69.9397 1.29821C69.9396 1.29821 69.9395 1.29821 69.9394 1.29821C69.9393 1.29821 69.9392 1.29821 69.9391 1.29821C69.939 1.29821 69.9389 1.29821 69.9388 1.29821C69.9387 1.29821 69.9386 1.29821 69.9385 1.29821C69.9384 1.29821 69.9383 1.29821 69.9382 1.29821C69.9381 1.29821 69.938 1.29821 69.9379 1.29821C69.9378 1.29821 69.9377 1.29821 69.9376 1.29821C69.9375 1.29821 69.9374 1.29821 69.9373 1.29821C69.9372 1.29821 69.9371 1.29821 69.937 1.29821C69.9369 1.29821 69.9368 1.29821 69.9367 1.29821C69.9366 1.29821 69.9365 1.29821 69.9364 1.29821C69.9363 1.29821 69.9362 1.29821 69.9361 1.29821C69.936 1.29821 69.9359 1.29821 69.9358 1.29821C69.9357 1.29821 69.9356 1.29821 69.9355 1.29821C69.9354 1.29821 69.9353 1.29821 69.9352 1.29821C69.9351 1.29821 69.935 1.29821 69.9349 1.29821C69.9348 1.29821 69.9347 1.29821 69.9346 1.29821C69.9345 1.29821 69.9344 1.29821 69.9343 1.29821C69.9342 1.29821 69.9341 1.29821 69.934 1.29821C69.9339 1.29821 69.9338 1.29821 69.9337 1.29821C69.9336 1.29821 69.9335 1.29821 69.9333 1.29821C69.9333 1.29821 69.9331 1.29821 69.933 1.29821C69.9329 1.29821 69.9328 1.29821 69.9327 1.29821C69.9326 1.29821 69.9325 1.29821 69.9324 1.29821C69.9323 1.29821 69.9322 1.29821 69.9321 1.29821C69.932 1.29821 69.9319 1.29821 69.9318 1.29821C69.9317 1.29821 69.9316 1.29821 69.9315 1.29821C69.9314 1.29821 69.9313 1.29821 69.9311 1.29821C69.931 1.29821 69.9309 1.29821 69.9308 1.29821C69.9307 1.29821 69.9306 1.29821 69.9305 1.29821C69.9304 1.29821 69.9303 1.29821 69.9302 1.29821C69.9301 1.29821 69.93 1.29821 69.9299 1.29821C69.9297 1.29821 69.9296 1.29821 69.9295 1.29821C69.9294 1.29821 69.9293 1.29821 69.9292 1.29821C69.9291 1.29821 69.929 1.29821 69.9289 1.29821C69.9288 1.29821 69.9287 1.29821 69.9286 1.29821C69.9284 1.29821 69.9283 1.29821 69.9282 1.29821C69.9281 1.29821 69.928 1.29821 69.9279 1.29821C69.9278 1.29821 69.9277 1.29821 69.9276 1.29821C69.9274 1.29821 69.9273 1.29821 69.9272 1.29821C69.9271 1.29821 69.927 1.29821 69.9269 1.29821C69.9268 1.29821 69.9267 1.29821 69.9265 1.29821C69.9264 1.29821 69.9263 1.29821 69.9262 1.29821C69.9261 1.29821 69.926 1.29821 69.9259 1.29821C69.9258 1.29821 69.9256 1.29821 69.9255 1.29821C69.9254 1.29821 69.9253 1.29821 69.9252 1.29821C69.9251 1.29821 69.925 1.29821 69.9248 1.29821C69.9247 1.29821 69.9246 1.29821 69.9245 1.29821C69.9244 1.29821 69.9243 1.29821 69.9242 1.29821C69.924 1.29821 69.9239 1.29821 69.9238 1.29821C69.9237 1.29821 69.9236 1.29821 69.9235 1.29821C69.9233 1.29821 69.9232 1.29821 69.9231 1.29821C69.923 1.29821 69.9229 1.29821 69.9228 1.29821C69.9226 1.29821 69.9225 1.29821 69.9224 1.29821C69.9223 1.29821 69.9222 1.29821 69.9221 1.29821C69.9219 1.29821 69.9218 1.29821 69.9217 1.29821C69.9216 1.29821 69.9215 1.29821 69.9213 1.29821C69.9212 1.29821 69.9211 1.29821 69.921 1.29821C69.9209 1.29821 69.9207 1.29821 69.9206 1.29821C69.9205 1.29821 69.9204 1.29821 69.9203 1.29821C69.9201 1.29821 69.92 1.29821 69.9199 1.29821C69.9198 1.29821 69.9197 1.29821 69.9195 1.29821C69.9194 1.29821 69.9193 1.29821 69.9192 1.29821C69.9191 1.29821 69.9189 1.29821 69.9188 1.29821C69.9187 1.29821 69.9186 1.29821 69.9184 1.29821C69.9183 1.29821 69.9182 1.29821 69.9181 1.29821C69.918 1.29821 69.9178 1.29821 69.9177 1.29821C69.9176 1.29821 69.9175 1.29821 69.9173 1.29821C69.9172 1.29821 69.9171 1.29821 69.917 1.29821C69.9168 1.29821 69.9167 1.29821 69.9166 1.29821C69.9165 1.29821 69.9163 1.29821 69.9162 1.29821C69.9161 1.29821 69.916 1.29821 69.9158 1.29821C69.9157 1.29821 69.9156 1.29821 69.9155 1.29821C69.9153 1.29821 69.9152 1.29821 69.9151 1.29821C69.9149 1.29821 69.9148 1.29821 69.9147 1.29821C69.9146 1.29821 69.9144 1.29821 69.9143 1.29821C69.9142 1.29821 69.914 1.29821 69.9139 1.29821C69.9138 1.29821 69.9137 1.29821 69.9135 1.29821C69.9134 1.29821 69.9133 1.29821 69.9131 1.29821C69.913 1.29821 69.9129 1.29821 69.9128 1.29821C69.9126 1.29821 69.9125 1.29821 69.9124 1.29821C69.9122 1.29821 69.9121 1.29821 69.912 1.29821C69.9118 1.29821 69.9117 1.29821 69.9116 1.29821C69.9114 1.29821 69.9113 1.29821 69.9112 1.29821C69.911 1.29821 69.9109 1.29821 69.9108 1.29821C69.9107 1.29821 69.9105 1.29821 69.9104 1.29821C69.9102 1.29821 69.9101 1.29821 69.91 1.29821C69.9099 1.29821 69.9097 1.29821 69.9096 1.29821C69.9094 1.29821 69.9093 1.29821 69.9092 1.29821C69.909 1.29821 69.9089 1.29821 69.9088 1.29821C69.9086 1.29821 69.9085 1.29821 69.9084 1.29821C69.9082 1.29821 69.9081 1.29821 69.908 1.29821C69.9078 1.29821 69.9077 1.29821 69.9075 1.29821V1.69821ZM69.8496 1.52504L70.9362 9.55209L71.3326 9.49843L70.2459 1.47138L69.8496 1.52504ZM71.1344 9.32526H70.889V9.72526H71.1344V9.32526ZM71.08 9.4659C70.2694 6.85788 69.2497 4.85257 67.9394 3.4974C66.6226 2.13552 65.0198 1.43842 63.0723 1.43842V1.83842C64.9105 1.83842 66.4098 2.49085 67.6518 3.77544C68.9004 5.06674 69.8962 7.00486 70.698 9.58462L71.08 9.4659ZM63.0723 1.43842C61.5638 1.43842 60.3189 1.86076 59.4491 2.66113C58.5772 3.46346 58.1051 4.62483 58.1051 6.05505H58.5051C58.5051 4.71612 58.9444 3.66917 59.72 2.95547C60.4977 2.23981 61.6363 1.83842 63.0723 1.83842V1.43842ZM58.1051 6.05505C58.1051 8.05107 59.0105 9.32861 60.3496 10.2508C61.6719 11.1614 63.4297 11.7336 65.1444 12.3342C66.8749 12.9403 68.5679 13.5768 69.8314 14.6094C71.0814 15.631 71.9159 17.0449 71.9159 19.2348H72.3159C72.3159 16.9205 71.424 15.3944 70.0845 14.2997C68.7585 13.216 66.9988 12.5599 65.2766 11.9567C63.5386 11.3479 61.8438 10.7941 60.5765 9.92139C59.3261 9.06029 58.5051 7.89729 58.5051 6.05505H58.1051ZM71.9159 19.2348C71.9159 21.5067 71.0134 23.2271 69.5512 24.3841C68.0836 25.5454 66.0367 26.1505 63.7383 26.1505V26.5505C66.1019 26.5505 68.2438 25.9288 69.7994 24.6978C71.3606 23.4624 72.3159 21.625 72.3159 19.2348H71.9159ZM63.7383 26.1505C58.5828 26.1505 55.3504 23.0818 55.3504 19.8658H54.9504C54.9504 23.3799 58.448 26.5505 63.7383 26.5505V26.1505ZM55.3504 19.8658C55.3504 19.1228 55.5194 18.6157 55.7465 18.3001C55.9717 17.9871 56.2558 17.8575 56.5174 17.8575V17.4575C56.1131 17.4575 55.7136 17.6609 55.4218 18.0665C55.1319 18.4694 54.9504 19.0664 54.9504 19.8658H55.3504ZM56.5174 17.8575C56.8117 17.8575 57.049 18.01 57.2244 18.3532C57.4052 18.7069 57.5092 19.2486 57.5092 19.9709H57.9092C57.9092 19.221 57.8029 18.6061 57.5806 18.1711C57.3529 17.7256 56.9943 17.4575 56.5174 17.4575V17.8575ZM57.5092 19.9709C57.5092 21.5698 57.9944 23.085 59.0163 24.2027C60.0411 25.3235 61.5875 26.0247 63.6682 26.0247V25.6247C61.6827 25.6247 60.2497 24.9589 59.3115 23.9328C58.3705 22.9035 57.9092 21.4918 57.9092 19.9709H57.5092ZM63.6682 26.0247C65.548 26.0247 67.1324 25.4604 68.2494 24.4528C69.3683 23.4435 70.0024 22.0033 70.0024 20.2864H69.6024C69.6024 21.8995 69.0096 23.2285 67.9815 24.1558C66.9516 25.0849 65.4689 25.6247 63.6682 25.6247V26.0247ZM70.0024 20.2864C70.0024 18.2326 69.1048 16.911 67.771 15.9662C66.4535 15.033 64.7038 14.4633 62.9955 13.8924C61.2711 13.3162 59.5863 12.738 58.3286 11.7959C57.0863 10.8652 56.2618 9.57948 56.2618 7.56231H55.8618C55.8618 9.71641 56.7548 11.1166 58.0888 12.116C59.4076 13.1039 61.1579 13.7001 62.8687 14.2718C64.5955 14.8489 66.2809 15.4009 67.5398 16.2926C68.7824 17.1727 69.6024 18.3793 69.6024 20.2864H70.0024ZM56.2618 7.56231C56.2618 5.67232 56.9921 4.11632 58.2558 3.03008C59.5224 1.94145 61.3394 1.31263 63.528 1.31263V0.91263C61.2648 0.91263 59.3488 1.56324 57.9951 2.72673C56.6387 3.89262 55.8618 5.56147 55.8618 7.56231H56.2618Z" fill="black" mask="url(#path-1-outside-1_38_464)"/>
</svg>
